<?xml version="1.0" standalone="no"?>
<!DOCTYPE svg PUBLIC "-//W3C//DTD SVG 20010904//EN"
 "http://www.w3.org/TR/2001/REC-SVG-20010904/DTD/svg10.dtd">
<svg version="1.0" xmlns="http://www.w3.org/2000/svg"
 width="1080.000000pt" height="1034.000000pt" viewBox="0 0 1080.000000 1034.000000"
 preserveAspectRatio="xMidYMid meet">

<g transform="translate(0.000000,1034.000000) scale(0.100000,-0.100000)"
fill="#000000" stroke="none">
<path d="M927 9873 c-19 -18 0 -370 28 -543 8 -47 17 -107 20 -135 7 -50 53
-281 81 -405 8 -36 19 -83 24 -106 38 -171 127 -439 196 -585 30 -65 54 -122
54 -128 0 -6 22 -72 49 -148 75 -211 92 -272 126 -438 8 -38 22 -99 31 -135 8
-36 19 -114 24 -175 10 -120 25 -218 36 -238 5 -6 29 -39 54 -72 56 -72 70
-97 70 -124 0 -24 -7 -25 -46 -11 -15 6 -31 7 -35 3 -5 -5 10 -58 31 -118 22
-60 40 -124 40 -143 0 -49 28 -150 54 -198 34 -61 38 -100 21 -195 -18 -101
-19 -238 -4 -327 7 -36 32 -111 56 -166 24 -56 46 -108 48 -117 2 -9 18 -42
35 -73 39 -69 27 -74 -18 -7 -36 55 -66 71 -89 48 -9 -8 -24 -55 -35 -104 -42
-195 17 -383 145 -465 97 -61 222 -167 275 -233 29 -36 57 -65 63 -65 5 0 9
17 9 38 0 46 14 72 31 55 25 -25 41 -131 45 -292 3 -150 2 -167 -15 -185 -27
-30 -77 -122 -98 -181 -23 -66 -24 -203 -1 -267 25 -68 47 -99 108 -155 87
-79 137 -111 210 -134 38 -12 77 -31 88 -43 28 -30 85 -192 78 -221 -3 -13
-24 -34 -48 -48 -56 -33 -123 -103 -142 -148 -14 -32 -13 -38 3 -65 23 -37
143 -105 199 -111 32 -4 47 -1 62 12 24 21 32 16 55 -34 15 -34 16 -43 5 -56
-8 -9 -22 -14 -31 -12 -29 8 -42 -18 -36 -71 14 -108 22 -121 136 -226 53 -49
53 -50 46 -95 -17 -100 -12 -132 28 -194 66 -103 117 -214 117 -256 0 -37 -5
-44 -72 -99 -40 -32 -93 -71 -118 -87 -167 -103 -200 -128 -194 -149 14 -47
64 -148 98 -198 50 -75 159 -184 219 -219 69 -39 79 -47 110 -94 35 -52 34
-85 -5 -153 -21 -37 -31 -68 -31 -96 0 -101 148 -301 241 -326 57 -15 84 -15
167 -2 70 12 207 56 255 83 78 43 126 74 138 88 6 8 12 34 12 58 0 35 6 50 35
82 61 67 129 81 425 88 256 6 294 15 390 98 49 43 87 63 193 106 260 103 377
167 419 228 13 19 33 41 46 49 22 14 22 14 22 -39 0 -99 47 -208 114 -266 89
-79 262 -120 381 -92 77 18 85 41 23 68 -61 26 -125 76 -148 114 -24 38 -26
97 -5 136 19 37 112 121 134 121 9 -1 47 -30 86 -65 l69 -64 -17 -36 c-30 -63
-23 -103 26 -149 50 -48 79 -63 291 -152 200 -83 218 -86 299 -46 48 24 84 33
164 41 56 6 112 15 125 20 13 5 57 19 98 31 41 12 86 25 100 30 53 19 107 21
151 7 75 -25 153 -29 206 -11 95 32 161 81 224 167 73 100 80 129 44 194 -29
52 -129 142 -185 166 -129 56 -257 61 -328 14 -58 -38 -84 -42 -106 -18 -18
19 -18 22 -2 55 13 29 14 43 6 82 -15 67 -24 78 -72 98 -99 41 -135 59 -180
89 -84 56 -66 67 104 67 150 0 198 -13 331 -92 206 -123 261 -140 510 -154
154 -9 208 -32 242 -105 13 -29 27 -80 30 -114 6 -52 3 -73 -19 -136 -34 -95
-34 -94 -14 -94 19 0 94 54 170 124 42 38 132 162 167 229 7 13 15 21 18 18 3
-3 0 -12 -6 -20 -9 -11 -10 -20 -2 -35 14 -26 14 -77 -1 -117 -9 -27 -9 -37 5
-58 27 -40 59 -56 147 -72 71 -12 93 -12 168 1 97 16 147 32 213 68 24 13 65
35 92 50 26 14 47 25 47 24 0 -1 -9 -25 -19 -52 -24 -62 -64 -168 -81 -215 -7
-19 -15 -94 -17 -166 -4 -107 -2 -136 10 -160 l16 -29 1 27 c0 60 65 258 127
387 41 88 134 224 248 366 168 207 228 297 271 406 43 110 58 195 58 324 0
176 -42 337 -124 477 -40 67 -49 101 -30 113 16 10 136 253 166 337 32 89 48
150 78 293 63 298 73 440 58 801 -7 148 -17 287 -22 309 -5 22 -14 72 -19 110
-6 39 -17 102 -26 140 -9 39 -20 90 -25 115 -6 25 -14 56 -19 70 -5 14 -17 52
-26 85 -10 33 -33 105 -52 160 -19 55 -39 118 -45 140 -5 22 -24 86 -43 142
-92 278 -102 359 -72 613 49 428 59 552 58 733 -1 88 -3 162 -5 166 -2 3 -9
49 -15 101 -54 458 -228 897 -531 1338 -234 341 -565 639 -893 803 -123 62
-306 135 -422 169 -113 33 -181 60 -193 79 -20 30 -27 168 -12 272 18 138 6
139 -138 11 -88 -79 -155 -166 -213 -279 -49 -96 -107 -155 -198 -203 -31 -17
-106 -68 -166 -115 -208 -159 -197 -154 -305 -161 -69 -5 -121 -2 -190 11
-119 20 -396 30 -515 17 -49 -6 -148 -18 -220 -27 -107 -14 -144 -15 -209 -6
-142 20 -149 54 -51 252 36 73 64 134 62 136 -3 2 -46 -25 -96 -59 -164 -113
-447 -271 -521 -292 -14 -4 -54 -18 -90 -31 -93 -33 -154 -50 -245 -69 -44
-10 -107 -24 -140 -31 -253 -59 -240 -60 -240 12 0 31 -6 57 -14 65 -11 11
-18 7 -40 -22 -57 -76 -133 -139 -266 -220 -162 -100 -255 -181 -288 -254 -22
-47 -32 -76 -69 -206 -32 -111 -85 -190 -233 -340 -78 -80 -150 -158 -161
-175 -10 -16 -46 -66 -78 -110 -169 -225 -289 -469 -340 -685 -31 -136 -38
-179 -47 -310 -9 -133 -4 -260 11 -260 4 0 10 48 13 108 5 106 34 252 49 252
11 0 10 -28 -2 -35 -6 -3 -10 -21 -10 -40 0 -19 -7 -87 -16 -152 -13 -101 -13
-144 -3 -300 14 -209 11 -229 -26 -185 -14 17 -32 46 -40 65 -8 20 -19 38 -24
41 -16 10 -41 -5 -41 -25 0 -17 -20 -28 -20 -11 -3 54 -15 131 -23 147 -10 21
-75 123 -136 214 -36 55 -125 165 -170 211 l-24 25 23 -40 c26 -44 84 -133
117 -180 12 -17 55 -83 97 -148 66 -103 74 -120 66 -143 -13 -34 -13 -86 1
-121 7 -15 11 -44 10 -63 l-2 -35 30 29 c17 16 33 38 37 48 7 23 21 23 29 -1
7 -22 69 -115 120 -181 170 -218 244 -377 236 -505 -2 -22 -25 -110 -53 -195
-27 -85 -54 -168 -59 -185 -15 -50 -31 -135 -43 -229 -6 -49 -16 -91 -22 -93
-6 -2 -17 18 -24 44 -7 26 -21 63 -31 81 l-17 32 -7 -27 c-9 -31 -9 -35 -24
-148 -6 -44 -17 -102 -25 -130 -29 -96 -33 -120 -24 -144 7 -19 14 -22 38 -19
34 5 41 -7 10 -17 -18 -6 -19 -12 -14 -58 5 -44 3 -56 -16 -79 -12 -16 -28
-28 -36 -28 -8 0 -29 -7 -45 -16 -28 -14 -30 -14 -27 1 1 9 21 23 42 30 82 28
91 78 28 150 -22 25 -43 60 -46 79 -4 18 -15 44 -26 57 -12 12 -23 34 -26 48
-3 14 -10 36 -15 49 -13 33 -11 50 5 29 12 -15 13 -10 12 36 0 41 4 57 21 74
29 29 39 98 20 142 l-15 34 -27 -41 c-15 -23 -35 -42 -44 -42 -20 0 -61 70
-61 104 0 15 -10 36 -22 48 -21 21 -23 21 -26 5 -2 -12 -9 -16 -19 -13 -8 3
-16 6 -19 6 -2 0 -1 6 2 14 4 10 0 13 -13 10 -15 -4 -18 -12 -15 -39 3 -26 -1
-37 -16 -46 -20 -13 -20 -13 -1 -51 10 -20 19 -48 19 -61 0 -35 19 -87 45
-122 22 -29 23 -61 3 -49 -7 5 -9 -6 -4 -32 l7 -39 -25 27 c-14 16 -29 34 -33
41 -15 23 -144 127 -184 147 -45 24 -149 119 -149 137 0 7 -3 13 -8 13 -17 0
-35 67 -34 130 0 73 21 220 31 220 3 0 17 -20 29 -44 18 -33 21 -49 14 -63
-10 -17 -15 -54 -13 -80 1 -7 14 -28 31 -46 27 -31 30 -41 27 -91 -2 -52 0
-58 28 -81 36 -29 165 -99 171 -92 2 2 -3 20 -11 40 -20 48 -19 84 3 96 15 9
13 12 -15 23 -56 21 -69 98 -17 98 28 0 29 5 8 56 -21 50 -19 111 6 177 12 28
25 73 30 99 9 43 7 49 -18 77 -14 17 -30 31 -34 31 -5 0 -21 -14 -36 -31 l-28
-31 -42 43 c-22 24 -48 53 -56 64 -25 34 -29 9 -6 -37 42 -81 82 -127 114
-128 28 0 28 -1 22 -41 -4 -23 -12 -51 -18 -63 -11 -20 -12 -20 -22 9 -6 17
-25 51 -41 75 -43 63 -115 214 -131 274 -8 29 -14 102 -14 171 0 110 8 166 39
290 14 52 13 55 -1 55 -20 0 -75 129 -82 190 -10 80 -26 150 -43 188 -8 18
-12 40 -10 50 4 16 5 16 6 0 0 -10 8 -18 16 -18 18 0 36 -32 32 -58 -1 -12 19
-41 51 -76 29 -31 55 -56 58 -56 2 0 4 8 4 18 0 11 9 27 20 37 20 18 22 18 77
-9 30 -15 57 -25 60 -23 2 3 -18 24 -46 47 -40 34 -53 53 -66 96 -10 36 -25
60 -46 76 -65 48 -227 225 -245 266 -8 18 -19 63 -24 100 -26 188 -41 277 -60
353 -12 46 -26 104 -31 129 -6 25 -15 55 -21 67 -6 12 -8 28 -5 37 3 8 -8 47
-24 86 -34 80 -65 191 -83 292 -9 48 -19 74 -38 93 -19 19 -28 41 -33 83 -4
31 -10 62 -14 67 -4 6 -13 36 -20 68 -8 37 -17 57 -27 57 -20 0 -17 32 4 56
43 46 54 71 41 96 -28 54 -69 75 -50 25 9 -24 3 -87 -8 -87 -13 0 -72 142 -90
215 -5 22 -19 74 -30 116 -29 111 -67 296 -90 444 -12 72 -26 153 -31 180 -18
93 -41 339 -38 410 l3 70 51 -90 c81 -141 191 -365 261 -535 91 -218 146 -367
214 -585 32 -101 35 -63 4 52 -38 145 -134 447 -183 578 -55 145 -146 339
-214 454 -76 130 -125 191 -152 191 -12 0 -26 -3 -29 -7z m6561 -241 c-2 -88
2 -131 14 -172 10 -30 31 -98 48 -150 17 -53 67 -170 113 -260 131 -262 179
-384 212 -545 24 -117 30 -311 12 -424 -16 -103 -4 -107 27 -11 48 145 60 330
30 457 -9 37 -13 83 -10 101 9 58 182 298 202 280 4 -4 0 -36 -10 -70 -28
-107 -37 -208 -31 -323 6 -95 3 -128 -20 -245 -14 -74 -30 -153 -36 -175 -5
-22 -14 -71 -19 -110 -27 -216 -56 -349 -110 -515 -52 -157 -192 -387 -315
-515 l-76 -80 8 50 c4 28 8 115 7 195 -1 276 -72 432 -247 546 -95 62 -282
250 -345 347 -100 154 -136 298 -129 525 2 87 10 164 18 190 l14 43 42 -63
c39 -59 128 -154 183 -196 14 -10 66 -43 115 -72 50 -30 104 -68 120 -85 17
-17 47 -43 68 -59 66 -49 144 -195 166 -311 l8 -40 12 30 c16 38 7 129 -20
199 -24 63 -86 147 -161 216 -117 106 -198 345 -198 581 0 193 41 389 111 536
40 84 62 115 120 173 39 38 73 70 75 70 2 0 3 -53 2 -118z m215 -267 c76 -20
148 -51 362 -155 146 -72 205 -108 315 -191 323 -244 489 -405 609 -590 156
-243 325 -569 366 -707 14 -48 29 -100 34 -117 9 -27 57 -223 82 -333 77 -338
93 -549 60 -778 -6 -38 -17 -125 -26 -194 -18 -147 -42 -313 -55 -390 -6 -30
-19 -113 -30 -185 -55 -352 -124 -591 -304 -1055 -53 -137 -97 -243 -117 -282
-5 -10 -20 -48 -33 -85 -21 -61 -86 -237 -106 -288 -18 -45 -50 -148 -80 -255
-16 -57 -48 -199 -65 -290 -9 -47 -20 -104 -25 -127 -12 -53 -13 -123 -1 -123
5 0 11 10 14 22 39 167 151 541 177 589 5 9 12 33 16 53 3 20 8 36 10 34 1 -2
8 -44 14 -93 11 -90 43 -236 62 -284 6 -14 24 -54 39 -89 16 -35 29 -65 29
-67 0 -3 19 -35 41 -72 52 -84 142 -206 287 -387 214 -267 281 -390 246 -448
-4 -7 -9 -49 -10 -95 -2 -46 -6 -89 -11 -95 -4 -7 -8 -17 -10 -23 -10 -46 -13
-59 -17 -73 -3 -9 -8 -35 -12 -57 -3 -22 -12 -58 -19 -80 -8 -22 -15 -51 -17
-65 -2 -14 -12 -39 -21 -57 -9 -18 -17 -36 -17 -42 0 -22 -57 -131 -65 -124
-4 5 -5 2 -1 -4 8 -14 -10 -53 -32 -69 -8 -6 -12 -16 -8 -22 4 -7 2 -12 -5
-12 -7 0 -10 -3 -6 -6 3 -3 1 -11 -4 -18 -6 -6 -19 -26 -30 -44 -16 -28 -22
-32 -34 -22 -20 17 -43 6 -57 -27 -17 -40 -88 -132 -111 -145 -17 -9 -16 -5 6
23 66 89 82 170 22 115 -15 -14 -31 -26 -36 -26 -4 0 -15 -7 -24 -17 -9 -9
-32 -16 -51 -16 -19 0 -34 -4 -34 -8 0 -7 -49 -24 -62 -21 -5 1 -8 -2 -8 -7 0
-5 -21 -17 -47 -26 -27 -9 -60 -23 -75 -32 -16 -8 -28 -11 -28 -8 0 3 -10 0
-22 -7 -28 -15 -41 -18 -96 -21 -31 -1 -41 1 -37 11 3 9 0 10 -15 2 -11 -6
-20 -8 -20 -4 0 3 -8 0 -17 -7 -11 -10 -14 -10 -9 -1 4 6 3 12 -3 12 -18 0
-23 40 -11 90 15 64 32 78 61 51 12 -11 43 -27 68 -35 39 -13 55 -13 107 -2
121 26 195 84 288 226 60 90 80 155 74 242 -4 46 -11 75 -22 86 -15 15 -16 14
-17 -18 0 -19 -4 -44 -9 -55 -7 -18 -10 -16 -25 19 -29 68 -78 131 -190 248
-113 116 -171 193 -207 274 -42 97 -75 253 -85 407 -3 42 -9 77 -13 77 -4 0
-13 -22 -20 -49 -11 -48 -69 -138 -107 -167 -10 -7 -26 -14 -35 -14 -10 0 -18
-4 -18 -9 0 -9 -150 -121 -199 -149 -91 -52 -272 -135 -316 -145 -5 -2 -15 -6
-21 -9 -6 -4 -26 -10 -44 -13 -18 -3 -37 -8 -41 -11 -25 -15 -222 -25 -275
-13 -31 7 -164 88 -164 100 0 6 -4 8 -8 5 -4 -2 -14 0 -22 5 -13 9 -13 10 0 6
8 -2 30 2 48 10 18 7 37 11 42 8 6 -4 10 -1 10 5 0 6 4 9 9 5 5 -3 16 1 24 9
8 8 17 12 21 9 3 -4 6 -1 6 6 0 7 6 11 14 8 8 -3 16 -2 18 2 2 5 38 25 81 46
43 20 122 70 175 109 138 103 220 178 368 337 22 24 53 52 67 62 43 29 59 62
62 128 1 33 6 64 11 68 5 4 49 23 99 41 165 61 267 140 281 218 17 91 -23 214
-92 279 -41 38 -30 36 -195 34 l-125 -2 -43 88 c-51 103 -164 295 -186 313 -8
7 -52 19 -97 27 -46 7 -87 18 -91 22 -5 5 -4 24 1 43 6 18 20 69 32 113 11 44
45 130 75 192 30 62 55 116 55 121 0 5 27 40 61 78 93 106 256 359 247 384 -2
5 -23 -23 -47 -63 -82 -133 -207 -291 -347 -437 -146 -153 -230 -253 -258
-308 -9 -18 -20 -30 -25 -28 -4 3 -13 31 -20 63 -19 86 -69 242 -92 285 -17
31 -53 20 -154 -47 -54 -36 -103 -65 -109 -65 -6 0 14 22 44 48 30 26 100 93
154 150 55 56 107 102 115 102 8 0 41 9 74 21 32 11 61 18 64 15 9 -9 -27 -87
-64 -135 -36 -49 -38 -64 -6 -69 14 -2 47 22 107 79 270 255 477 669 566 1133
11 54 22 101 25 104 12 13 52 -118 90 -298 19 -90 39 -324 31 -362 -12 -61 47
-12 64 53 7 23 27 88 45 143 127 380 121 825 -19 1391 -28 114 -74 254 -88
273 -30 36 -34 -5 -10 -88 30 -102 72 -277 96 -405 39 -209 50 -330 50 -565 0
-240 -5 -285 -58 -550 -15 -76 -17 -73 -46 85 -13 66 -45 188 -72 270 -56 174
-64 230 -50 345 18 134 25 297 13 280 -5 -8 -12 -37 -16 -65 -3 -27 -10 -72
-15 -100 -6 -27 -17 -90 -26 -140 -16 -85 -55 -263 -74 -330 -4 -16 -22 -82
-39 -145 -94 -349 -210 -601 -387 -836 -49 -65 -94 -113 -83 -89 3 6 14 30 26
55 11 25 29 65 41 90 26 59 68 191 81 260 17 86 41 289 41 350 0 30 5 75 11
100 6 25 14 69 18 98 11 73 -10 49 -33 -38 -10 -36 -24 -85 -33 -110 -36 -105
-67 -188 -86 -230 -11 -25 -34 -79 -52 -122 -69 -162 -171 -326 -293 -468 -95
-110 -285 -300 -301 -300 -11 0 -10 5 6 23 67 72 218 356 276 518 30 83 57
185 87 329 32 152 36 546 9 788 -13 113 -12 115 41 129 50 12 191 85 187 96
-2 8 -39 12 -108 13 -152 2 -291 47 -402 131 -105 79 -229 276 -283 450 -26
83 -31 91 -103 163 -125 123 -232 165 -426 165 -127 0 -195 -16 -241 -57 -27
-24 -34 -15 -41 57 -6 59 17 200 48 297 25 77 69 261 68 284 0 14 -2 15 -6 4
-2 -8 -8 -24 -13 -35 -5 -11 -27 -76 -50 -145 -23 -69 -53 -149 -66 -178 -13
-29 -35 -78 -48 -110 -95 -224 -250 -472 -425 -681 -262 -315 -489 -511 -865
-745 l-29 -18 7 23 c5 13 14 44 21 69 8 25 18 60 24 78 8 28 -10 13 -117 -96
-70 -71 -147 -144 -172 -163 l-45 -34 19 30 c10 17 33 50 50 75 48 68 181 315
227 421 94 216 150 427 199 749 11 74 25 158 30 185 5 28 12 84 15 125 12 152
22 184 89 288 104 160 187 312 172 312 -2 0 -32 -42 -67 -92 -34 -51 -90 -129
-123 -172 -34 -44 -79 -103 -101 -131 -22 -29 -89 -110 -148 -180 -106 -123
-109 -126 -130 -111 -58 42 -145 79 -208 87 -146 21 -377 -38 -397 -100 -6
-18 28 -11 128 25 63 22 93 27 186 28 110 1 111 1 187 -38 42 -22 77 -45 77
-51 0 -29 -212 -214 -380 -332 -168 -119 -440 -261 -440 -230 0 1 7 37 15 81
26 134 51 206 135 391 28 62 89 161 152 244 26 36 45 67 42 70 -6 7 -85 -79
-149 -164 -207 -274 -299 -596 -260 -916 16 -128 30 -185 69 -276 33 -80 33
-86 -4 -36 -71 96 -160 320 -175 436 -4 38 -11 57 -18 54 -21 -7 -13 -163 13
-247 29 -92 30 -190 7 -375 -41 -317 -4 -552 134 -844 54 -114 133 -238 203
-317 55 -62 171 -153 257 -200 l64 -35 -45 7 c-100 14 -217 77 -321 172 -31
29 -60 52 -63 52 -3 0 -6 -9 -6 -20 0 -11 29 -52 65 -91 58 -63 76 -89 60 -89
-3 0 -38 16 -78 36 -93 47 -227 134 -297 193 -30 25 -61 50 -68 56 -7 5 -56
59 -108 119 -130 151 -219 301 -282 476 -69 194 -97 311 -108 442 -4 43 -11
81 -15 84 -31 19 -42 -128 -19 -254 7 -38 10 -157 8 -305 -2 -261 3 -298 58
-404 12 -24 20 -43 17 -43 -3 0 -41 35 -86 78 -116 112 -192 211 -211 274 -9
29 -38 91 -66 137 -74 122 -80 134 -106 240 -68 271 -49 691 47 1059 44 168
45 175 23 170 -18 -3 -73 -100 -74 -130 0 -10 -4 -18 -10 -18 -5 0 -10 -8 -11
-17 0 -10 -3 -13 -5 -6 -3 7 1 27 9 45 8 18 22 56 32 83 22 63 116 254 158
320 108 172 241 336 390 484 l85 83 5 -33 c7 -45 26 -120 34 -132 4 -6 7 -69
8 -141 1 -119 4 -137 30 -199 32 -79 105 -164 174 -205 39 -23 58 -27 146 -30
95 -3 99 -3 71 12 -15 9 -38 16 -50 16 -35 0 -157 67 -203 112 -49 48 -90 120
-109 192 -29 109 -11 271 43 381 15 30 24 58 20 62 -9 9 -51 -41 -68 -79 -6
-16 -16 -28 -22 -28 -18 0 1 103 32 165 45 94 61 132 61 148 0 9 5 19 10 22
16 10 12 45 -6 45 -39 0 16 156 80 227 19 22 102 82 183 133 82 52 168 113
192 137 44 44 61 50 43 16 -5 -10 -12 -30 -16 -46 -8 -32 -7 -32 129 8 87 25
171 44 310 71 86 16 305 86 444 141 98 39 287 129 322 154 17 12 32 19 34 17
8 -8 -97 -157 -157 -223 -72 -79 -147 -137 -247 -194 -130 -74 -209 -103 -278
-105 -58 -2 -96 -17 -80 -32 3 -4 23 -10 44 -14 21 -4 67 -16 103 -25 68 -18
191 -17 255 3 17 6 59 17 95 27 36 9 82 24 103 33 20 8 40 12 43 9 10 -9 -71
-131 -140 -210 -90 -105 -242 -206 -371 -247 -135 -42 -340 -126 -473 -193
-147 -74 -268 -195 -312 -314 -28 -76 -45 -205 -35 -268 l8 -50 18 98 c31 174
122 320 252 409 64 43 187 106 300 153 67 28 70 29 151 17 139 -20 180 -17
416 29 104 21 356 141 408 196 30 31 38 25 98 -80 70 -122 201 -317 236 -354
l31 -33 -42 -86 c-41 -82 -43 -91 -39 -153 6 -73 48 -181 71 -181 8 0 32 22
55 49 101 119 116 218 49 314 -8 11 -9 21 -2 30 59 80 309 381 374 450 19 20
41 37 49 37 7 0 50 -18 96 -39 89 -43 134 -61 236 -92 36 -11 99 -33 140 -49
41 -15 92 -34 112 -41 28 -10 47 -27 75 -68 76 -115 182 -210 332 -297 143
-83 209 -165 257 -319 15 -49 18 -93 18 -235 0 -211 -20 -309 -75 -366 -27
-28 -30 -36 -19 -49 7 -8 19 -15 26 -15 22 0 168 134 256 234 205 235 329 492
393 818 8 42 15 89 15 103 0 14 4 23 10 20 5 -3 38 -53 72 -111 38 -63 64 -98
66 -88 2 9 -26 78 -63 153 l-66 136 11 220 c7 121 14 257 17 303 l4 82 60 -31
c113 -60 284 -225 405 -388 108 -145 228 -398 299 -626 20 -66 39 -126 41
-134 3 -8 7 -11 10 -8 8 8 -31 163 -73 287 -45 135 -144 339 -224 459 -66 101
-246 294 -341 368 -32 24 -85 57 -118 74 l-61 30 7 72 c4 40 18 113 31 162 31
118 33 138 10 143 -25 5 -183 -156 -228 -232 -19 -31 -37 -56 -41 -56 -3 0
-21 37 -38 83 -18 45 -66 152 -107 237 -68 141 -153 342 -153 362 0 12 29 10
93 -7z m-576 -117 c-3 -13 -11 -73 -18 -135 -11 -95 -15 -110 -29 -104 -42 22
-104 21 -292 -6 -23 -3 -38 -1 -38 5 0 35 323 262 372 262 6 0 8 -10 5 -22z
m-937 -283 c127 -5 265 -27 397 -61 140 -36 253 -74 253 -85 0 -5 -9 -26 -20
-46 -11 -21 -20 -43 -20 -48 0 -6 -11 -26 -25 -45 -15 -21 -25 -47 -25 -69 0
-20 -4 -43 -10 -51 -8 -12 -12 -12 -36 0 -58 32 -345 6 -431 -39 -21 -10 -55
-33 -77 -50 -21 -17 -40 -31 -41 -31 -1 0 -17 7 -35 16 -18 9 -59 17 -90 18
-68 1 -100 -20 -100 -66 0 -30 29 -49 93 -63 15 -3 27 -9 27 -13 0 -25 -298
-344 -313 -335 -13 8 -69 98 -122 198 -26 50 -58 109 -71 133 -31 56 -30 62
10 55 18 -3 43 0 55 6 31 17 29 74 -4 106 -27 28 -61 31 -117 11 -37 -13 -38
-13 -73 25 -47 51 -85 70 -154 76 -87 7 -85 5 -49 75 18 35 34 66 36 71 5 10
-45 9 -66 -2 -26 -13 -247 -81 -335 -102 -83 -20 -194 -26 -167 -9 8 5 32 12
54 16 119 20 259 106 384 235 l76 79 76 0 c45 0 99 -8 135 -19 33 -10 67 -16
75 -11 19 9 220 30 315 33 81 2 243 -1 395 -8z m876 -7 c30 -10 32 -15 37 -72
3 -33 3 -63 1 -65 -3 -3 -19 1 -37 8 -18 7 -87 32 -154 55 -67 23 -125 45
-128 48 -11 10 116 36 184 37 36 0 79 -4 97 -11z m-50 -198 c54 -22 103 -46
110 -53 6 -6 21 -43 34 -82 13 -38 29 -80 38 -92 21 -34 0 -29 -65 14 -79 52
-156 125 -197 187 -20 30 -36 57 -36 60 0 11 19 6 116 -34z m-1679 -216 c16
-12 42 -39 58 -62 33 -45 49 -50 76 -26 10 9 38 19 63 21 38 5 46 2 55 -16 17
-31 4 -44 -34 -37 -50 10 -115 -24 -96 -49 5 -5 46 -83 92 -173 83 -160 137
-245 171 -266 13 -8 24 -7 41 4 34 21 357 385 357 402 0 4 -11 8 -24 8 -13 0
-29 7 -36 15 -7 8 -30 20 -51 27 -22 6 -38 16 -36 22 5 15 167 20 181 6 18
-18 47 -11 88 24 68 58 111 69 311 74 151 3 177 2 177 -11 0 -11 -24 -16 -117
-21 -64 -4 -150 -14 -191 -22 -41 -8 -78 -12 -83 -9 -9 6 -89 -62 -89 -75 0
-5 22 -16 49 -25 27 -9 55 -23 62 -31 21 -26 101 -62 195 -87 89 -25 179 -42
200 -39 11 2 34 -47 34 -69 0 -15 -43 -10 -110 14 -36 13 -110 38 -165 57 -55
18 -127 45 -160 60 -100 46 -155 64 -165 54 -5 -5 -24 -28 -42 -50 -54 -67
-268 -315 -322 -371 -89 -95 -108 -81 -306 242 -50 82 -98 164 -105 182 -8 18
-19 33 -25 33 -6 0 -38 -20 -69 -44 -32 -25 -108 -69 -169 -99 -102 -51 -132
-61 -247 -87 -58 -13 -329 -12 -290 2 17 5 54 21 83 34 35 16 72 24 110 25
111 1 185 21 327 88 138 66 235 129 235 152 0 45 -100 103 -177 104 -36 0 -53
4 -53 13 0 37 149 41 197 6z m-79 -89 c28 -13 52 -28 52 -33 0 -21 -53 -54
-170 -107 -136 -62 -222 -88 -273 -83 l-32 3 40 26 c44 29 129 109 187 177 35
40 39 42 90 42 35 0 71 -8 106 -25z m1482 -45 c4 -14 10 -59 14 -101 l7 -76
-53 8 c-145 23 -378 109 -378 139 0 16 66 43 125 51 28 3 101 6 164 5 113 -1
115 -1 121 -26z m-1000 -650 c0 -11 5 -20 10 -20 20 0 50 -65 50 -108 0 -42
-26 -108 -52 -129 -10 -9 -13 0 -13 47 0 32 3 56 7 54 4 -2 9 0 12 5 3 5 -3
11 -14 14 -12 3 -20 14 -20 25 0 12 -4 24 -10 27 -5 3 -10 -3 -10 -14 0 -23
-27 -54 -40 -46 -11 7 -6 21 26 93 13 29 24 57 24 62 0 6 7 10 15 10 8 0 15
-9 15 -20z m-770 -154 c0 -109 -128 -766 -149 -766 -4 0 -19 24 -35 53 -67
118 -152 181 -294 217 -35 8 -63 19 -63 23 0 4 40 39 88 78 49 38 121 102 160
141 62 60 76 69 98 64 36 -9 46 0 33 28 -9 22 -3 33 68 115 43 50 82 91 86 91
4 0 8 -20 8 -44z m1135 -203 c14 -81 77 -268 117 -346 30 -61 31 -87 2 -87
-32 0 -200 -90 -260 -139 -107 -87 -159 -190 -175 -345 -10 -101 1 -219 26
-281 50 -119 208 -254 350 -298 105 -32 183 -42 325 -42 158 0 214 12 299 62
104 60 200 165 246 268 17 38 45 160 45 197 0 2 64 3 143 4 80 0 161 6 186 13
25 7 47 9 52 4 17 -17 31 -296 26 -493 -8 -276 -36 -441 -122 -715 -37 -116
-40 -122 -102 -187 -89 -92 -215 -166 -421 -249 -42 -17 -99 -40 -127 -52 -92
-37 -343 -105 -505 -136 -30 -6 -77 -16 -105 -22 -27 -6 -158 -13 -290 -16
-199 -4 -271 -1 -425 16 -402 45 -506 67 -709 151 -41 17 -82 37 -91 45 -8 7
-60 32 -115 55 -272 111 -429 264 -570 555 -138 286 -191 626 -148 950 l8 60
57 -85 c74 -112 135 -168 238 -218 108 -53 216 -65 320 -37 36 10 76 20 88 23
l24 5 -26 -41 c-33 -52 -32 -56 2 -47 47 12 178 119 248 204 53 64 57 47 10
-43 -24 -45 -30 -66 -21 -66 49 0 275 133 474 279 346 253 715 685 873 1021
18 38 36 70 40 70 4 0 10 -17 13 -37z m458 16 c117 -18 188 -58 295 -167 l93
-94 24 -94 c36 -140 82 -236 168 -347 76 -98 246 -187 388 -203 33 -4 57 -10
52 -15 -27 -27 -379 -47 -474 -26 -33 7 -38 12 -48 51 -6 24 -33 77 -60 116
l-49 72 35 31 c32 28 71 87 57 87 -3 0 -32 -16 -64 -35 -32 -19 -61 -35 -66
-35 -4 0 -22 13 -39 29 -57 55 -178 131 -259 163 -46 17 -127 38 -186 47
l-105 16 -37 70 c-42 78 -98 225 -98 256 0 15 15 27 56 45 102 45 183 53 317
33z m-2079 -374 c33 -9 75 -23 95 -33 58 -27 125 -102 160 -178 18 -38 36 -77
41 -86 23 -41 -185 -543 -242 -582 -12 -9 -56 -31 -98 -48 -69 -30 -84 -32
-175 -32 -142 1 -181 23 -258 145 -87 137 -127 278 -134 475 l-6 140 79 28
c86 31 166 70 289 140 69 39 88 46 135 46 31 0 82 -7 114 -15z m2029 -131
c176 -45 373 -198 457 -354 34 -63 35 -69 34 -170 0 -95 -3 -111 -31 -171 -55
-119 -195 -245 -302 -271 -168 -40 -400 -18 -549 54 -63 30 -102 57 -157 111
-64 64 -75 80 -94 141 -38 123 -25 300 30 409 51 99 225 224 350 252 87 18
189 18 262 -1z m3042 -1379 c18 -60 52 -168 75 -240 43 -131 94 -312 112 -395
5 -25 18 -74 28 -110 26 -88 47 -196 60 -310 6 -52 14 -115 17 -140 12 -102
15 -283 5 -289 -6 -4 -30 -54 -52 -111 -23 -58 -46 -109 -51 -114 -5 -6 -9
-16 -9 -23 0 -13 -85 -191 -127 -263 -70 -123 -169 -234 -219 -246 -31 -8 -38
1 -71 96 -22 62 -22 71 -12 185 12 124 6 265 -13 344 -16 63 -95 308 -114 351
-9 19 -26 55 -38 80 -42 82 -43 81 48 322 115 307 166 461 226 683 68 256 93
335 98 310 2 -11 19 -69 37 -130z m-6282 -155 c83 -126 197 -262 253 -304 23
-17 79 -61 126 -98 131 -104 285 -177 448 -213 19 -4 44 -14 55 -21 13 -9 49
-14 96 -13 40 0 90 -5 109 -11 19 -5 54 -10 78 -10 49 0 82 -14 82 -35 0 -20
-79 -64 -147 -82 l-57 -15 -64 66 c-35 36 -67 66 -70 66 -3 0 -35 -28 -71 -62
-37 -35 -79 -73 -94 -85 -15 -13 -27 -32 -27 -43 0 -25 -49 -56 -104 -66 -52
-8 -116 -40 -186 -93 -30 -23 -63 -41 -72 -41 -10 0 -56 -20 -101 -45 -46 -25
-93 -45 -105 -45 -12 0 -61 -12 -109 -26 -136 -41 -351 -83 -425 -84 -80 0
-108 10 -165 56 -65 53 -73 76 -73 201 0 64 -6 130 -15 163 -19 71 -28 120
-20 120 3 0 14 -5 24 -12 10 -6 25 -9 32 -6 13 5 99 209 99 233 0 6 16 57 36
115 35 105 51 159 78 266 8 31 21 63 29 72 15 14 19 13 49 -12 118 -97 336
-244 402 -271 45 -19 62 -10 26 13 -62 41 -150 137 -183 200 -48 94 -73 207
-57 257 l12 38 21 -34 c12 -19 52 -81 90 -139z m4533 -77 c-14 -54 -33 -125
-43 -157 -18 -59 -18 -59 -76 -79 -32 -10 -60 -17 -63 -14 -3 3 18 40 46 83
29 44 75 126 103 184 29 58 53 100 55 93 2 -7 -8 -57 -22 -110z m-5576 -388
c10 -12 10 -15 -3 -15 -8 0 -17 7 -21 15 -3 8 -2 15 3 15 5 0 14 -7 21 -15z
m4980 -82 c-22 -64 -45 -114 -61 -136 -13 -16 -16 -16 -56 4 -68 33 -59 57 47
133 82 59 91 59 70 -1z m-4882 -103 c32 -20 47 -38 38 -47 -7 -8 -44 17 -89
60 -26 24 -37 43 -37 63 0 29 1 28 29 -14 16 -24 42 -52 59 -62z m5548 -101
c-44 -92 -76 -201 -76 -260 0 -28 -1 -29 -49 -29 -29 0 -53 5 -58 13 -10 15
-11 77 0 77 4 0 7 6 7 13 0 36 201 299 217 284 2 -3 -16 -47 -41 -98z m-908
57 c58 -36 160 -86 177 -86 31 0 10 -72 -32 -105 -7 -5 -26 -52 -44 -104 -17
-52 -37 -104 -44 -115 -7 -12 -22 -53 -34 -92 -14 -43 -35 -85 -55 -108 -31
-34 -35 -36 -62 -25 -19 7 -60 8 -115 4 l-86 -6 -13 30 c-7 17 -18 59 -25 94
-8 34 -19 80 -25 102 -24 83 -32 142 -28 202 4 68 14 84 79 129 40 27 220 102
252 103 9 1 34 -10 55 -23z m510 -18 c13 -41 19 -66 37 -148 7 -36 17 -73 20
-82 6 -15 3 -17 -23 -12 -25 5 -34 1 -63 -32 -19 -21 -59 -64 -89 -96 -57 -61
-150 -194 -150 -215 0 -7 -17 -31 -39 -53 -33 -34 -45 -40 -77 -39 -42 1 -69
8 -98 25 -17 11 -17 13 6 50 37 60 71 163 109 332 13 56 27 102 31 102 4 0 16
8 26 18 37 36 130 100 192 132 36 18 69 37 75 41 18 17 34 9 43 -23z m-3270
-75 c16 -21 57 -79 91 -130 l61 -92 -6 -143 c-4 -99 -1 -175 9 -248 15 -108
12 -124 -22 -162 -16 -17 -19 -14 -50 51 -18 37 -54 94 -80 127 -26 32 -65 84
-86 114 l-39 55 3 141 c2 107 -1 149 -12 176 l-15 35 52 56 c28 31 54 56 58
57 3 0 20 -17 36 -37z m569 5 c28 -10 33 -17 33 -45 0 -35 -12 -90 -42 -193
l-18 -66 -78 -10 c-94 -13 -156 -42 -224 -103 l-51 -46 7 119 7 118 -31 54
c-40 71 -39 80 12 88 23 4 47 11 53 15 5 5 55 21 110 36 55 14 114 30 130 35
43 12 55 11 92 -2z m335 -83 l56 -7 -18 -41 c-14 -30 -16 -46 -8 -60 9 -18 7
-19 -44 -12 -29 3 -67 11 -84 16 l-31 10 14 42 c7 23 16 48 18 55 3 7 13 11
22 8 10 -3 43 -8 75 -11z m196 -25 c36 0 42 -3 42 -20 0 -12 7 -34 15 -51 17
-32 12 -51 -24 -83 -20 -18 -21 -18 -63 7 -24 14 -55 36 -70 50 -25 23 -27 29
-17 54 15 41 30 55 53 49 12 -3 40 -6 64 -6z m217 -37 c11 -7 27 -13 37 -13
24 0 23 -9 -4 -31 -29 -26 -41 -24 -66 11 -12 16 -35 33 -50 37 l-27 7 25 6
c30 7 57 2 85 -17z m527 -6 c-2 -16 6 -44 18 -64 17 -29 19 -38 8 -45 -29 -20
-116 -57 -160 -69 -41 -10 -52 -9 -73 5 -14 9 -25 22 -25 28 0 19 155 166 181
171 44 8 54 3 51 -26z m-1158 7 c13 -8 27 -25 30 -38 7 -27 31 -38 141 -62 44
-10 82 -19 84 -21 2 -1 -2 -9 -9 -17 -14 -18 -274 -146 -295 -146 -21 0 -19
23 5 53 11 14 20 35 20 46 0 17 -6 21 -30 21 -16 0 -30 2 -30 5 0 3 7 31 15
63 8 31 17 69 20 85 6 31 16 33 49 11z m959 -46 c-26 -27 -70 -65 -96 -85 -47
-35 -48 -35 -69 -17 -11 11 -29 32 -40 47 -19 26 -19 33 -8 68 l13 38 116 3
c64 2 120 1 124 -1 5 -2 -13 -26 -40 -53z m-1833 -32 c0 -53 -1 -55 -32 -65
-18 -6 -53 -25 -78 -41 -25 -16 -54 -30 -65 -30 -25 0 -125 46 -125 57 0 16
126 93 170 103 25 6 59 15 75 20 54 15 55 14 55 -44z m3495 -6 c4 -6 15 -8 25
-5 12 4 20 0 25 -12 11 -33 112 -72 220 -84 115 -13 153 -28 194 -74 23 -26
91 -145 91 -159 0 -2 -30 -12 -67 -22 -48 -13 -100 -19 -179 -19 l-111 0 -48
39 c-26 22 -61 52 -77 67 -17 15 -74 46 -127 70 -53 23 -99 45 -103 48 -3 3
16 31 43 61 28 30 57 65 66 78 16 23 38 29 48 12z m-1895 -58 c16 -23 59 -72
95 -108 l65 -67 -60 6 c-76 8 -107 28 -120 78 -15 54 -31 49 -23 -7 4 -34 2
-48 -8 -55 -20 -13 -84 -11 -115 3 -22 10 -25 17 -21 43 3 16 8 38 12 48 4 9
3 17 -2 17 -5 0 -15 -16 -22 -35 -14 -40 -43 -58 -124 -79 -64 -17 -119 -8
-151 23 -18 19 -19 21 -3 21 25 0 88 34 111 59 13 14 31 21 56 21 30 0 43 7
71 38 l35 37 87 -1 87 -1 30 -41z m857 23 c66 -8 65 -7 78 -75 4 -19 11 -48
16 -65 5 -16 18 -61 29 -99 11 -38 25 -75 31 -83 7 -7 31 -13 55 -13 50 0 51
-2 28 -80 -20 -68 -53 -109 -134 -169 -110 -82 -155 -96 -215 -69 -26 12 -29
20 -39 95 -6 42 -49 149 -105 263 -33 67 -52 155 -40 186 25 65 -15 58 -82
-14 -30 -32 -63 -71 -75 -87 l-20 -29 -65 65 -64 64 45 6 c53 7 82 18 172 65
57 29 81 35 170 43 57 5 114 7 128 6 14 -2 53 -7 87 -10z m-3998 -29 c15 -18
3 -46 -20 -46 -22 0 -34 22 -25 45 7 19 30 19 45 1z m6649 -87 c114 -206 157
-382 112 -469 -28 -54 -103 -130 -130 -130 -11 0 -40 18 -64 40 -51 47 -62 82
-75 235 -11 135 6 267 48 358 18 42 36 67 43 65 7 -2 37 -47 66 -99z m-5412
11 c6 0 18 -7 25 -16 13 -16 7 -16 -66 -10 -44 4 -90 7 -102 6 -35 0 -28 16
19 44 l41 25 36 -25 c20 -13 41 -24 47 -24z m293 15 c-8 -8 -32 -21 -54 -30
l-40 -16 30 26 c46 40 102 57 64 20z m720 -19 c-2 -2 -44 -31 -94 -64 -95 -64
-153 -114 -197 -172 l-27 -35 -1 54 c0 64 22 99 97 153 64 46 118 67 177 67
27 1 47 -1 45 -3z m90 -32 c-10 -12 -14 -47 -14 -123 l0 -106 58 -115 c66
-134 72 -174 32 -226 -14 -18 -25 -43 -25 -55 0 -22 2 -22 103 -16 95 5 148
16 189 37 19 11 31 -1 22 -22 -13 -32 -208 -168 -241 -168 -13 0 -23 -4 -23
-9 0 -5 -15 -12 -32 -15 -18 -3 -44 -8 -57 -11 -14 -2 -56 1 -94 7 -86 14
-170 67 -227 142 -78 103 -107 237 -76 353 19 72 45 111 117 174 81 71 261
189 273 178 5 -5 3 -15 -5 -25z m1336 -41 c4 -27 22 -86 41 -133 78 -200 86
-234 82 -349 -4 -95 -7 -112 -36 -167 -61 -121 -150 -183 -292 -205 -100 -15
-170 -5 -258 37 -74 35 -115 71 -208 180 l-51 59 56 1 c84 1 150 37 204 110
24 33 78 91 120 129 43 38 89 89 104 114 38 66 212 282 222 276 5 -2 12 -26
16 -52z m-2578 8 c26 -10 67 -22 90 -26 50 -8 62 -20 30 -29 -41 -11 -217 33
-217 54 0 25 35 26 97 1z m501 -53 c22 -35 66 -99 99 -143 32 -45 69 -103 82
-129 27 -56 27 -56 -58 -81 -67 -19 -267 -86 -449 -149 -74 -25 -144 -46 -156
-46 -59 0 -204 137 -252 237 -36 76 -43 176 -19 259 19 65 30 84 51 84 11 0
12 -4 3 -19 -7 -10 -9 -26 -6 -35 11 -29 128 -74 237 -91 88 -14 117 -15 209
-4 58 6 112 16 118 22 8 6 12 30 10 66 -2 55 -1 56 33 73 19 10 40 18 46 18 7
0 30 -28 52 -62z m1153 2 c56 -6 83 -4 123 9 42 13 57 14 86 4 43 -15 104 -16
148 -4 22 7 42 6 60 -1 15 -5 59 -11 97 -12 62 -1 77 -6 137 -41 37 -22 68
-44 68 -49 0 -17 -231 -236 -256 -242 -17 -5 -27 -15 -31 -36 -5 -27 -6 -28
-22 -11 -24 26 -44 80 -37 98 3 9 2 13 -4 10 -6 -3 -10 -1 -10 5 0 19 -53 -2
-166 -66 -62 -35 -114 -64 -117 -64 -3 0 -40 34 -83 75 -106 104 -103 103
-147 45 -58 -78 -140 -131 -107 -70 7 12 8 20 2 17 -37 -24 -142 203 -142 307
0 35 1 36 28 30 57 -15 244 -95 285 -123 23 -16 73 -61 112 -101 l70 -73 30
18 c76 44 95 53 165 78 108 38 161 48 280 56 59 3 105 10 105 16 0 6 -40 11
-94 13 -125 4 -265 -27 -385 -84 -27 -13 -52 -21 -55 -18 -3 3 2 24 10 47 33
86 33 84 5 55 -31 -34 -32 -34 -40 -3 -4 15 -11 23 -17 19 -6 -3 -8 -16 -5
-29 3 -13 3 -43 0 -68 l-6 -45 -36 46 c-19 26 -43 53 -51 60 -40 33 -130 87
-169 102 l-44 17 38 36 38 35 33 -25 c24 -19 52 -27 104 -33z m-2520 -16 c57
-55 88 -114 118 -224 23 -81 27 -154 11 -194 -12 -34 -45 -34 -109 -1 -114 57
-220 249 -221 397 0 63 24 81 98 75 48 -3 58 -9 103 -53z m578 -20 c-7 -16
-13 -75 -13 -131 -1 -57 -4 -103 -8 -103 -7 0 -23 183 -19 215 1 11 9 31 18
44 21 32 38 13 22 -25z m-143 -7 c1 -1 -4 -33 -12 -72 -30 -154 -10 -314 48
-390 28 -36 111 -112 162 -148 16 -12 4 -17 -105 -40 -68 -15 -160 -30 -204
-33 l-80 -6 42 37 c56 48 83 110 83 190 0 72 -15 113 -76 207 -28 44 -57 75
-83 90 -32 18 -45 34 -60 73 -11 28 -22 58 -26 68 -6 15 1 17 76 18 46 1 98 5
114 9 24 7 115 4 121 -3z m4162 -86 c53 -27 86 -66 126 -147 41 -83 50 -92
107 -102 42 -7 43 -7 57 -67 18 -77 10 -180 -18 -234 -11 -23 -24 -41 -28 -41
-13 0 -202 75 -282 113 -41 19 -104 47 -140 62 -36 15 -94 42 -130 60 -36 18
-73 35 -82 39 -15 4 -18 17 -18 69 0 66 31 212 49 230 7 7 27 2 62 -15 41 -19
60 -23 84 -17 16 5 42 11 57 14 15 3 40 16 55 30 34 30 53 31 101 6z m825 -50
c33 -59 33 -67 5 -75 -18 -4 -32 3 -62 35 l-40 42 -75 -7 c-133 -12 -340 -15
-306 -4 17 5 63 9 104 9 67 -1 164 13 261 38 73 19 85 15 113 -38z m-4846
-143 c-3 -7 -5 -2 -5 12 0 14 2 19 5 13 2 -7 2 -19 0 -25z m4941 26 l31 -6
-21 -42 c-33 -66 -78 -123 -106 -136 -24 -11 -176 -40 -209 -40 -21 0 -15 42
12 97 32 64 51 81 106 93 24 5 67 16 94 24 61 18 56 17 93 10z m314 -61 c13
-29 21 -70 22 -109 1 -59 -1 -65 -33 -98 -40 -42 -150 -101 -205 -112 l-39 -7
5 51 c3 28 18 76 33 107 28 54 167 215 186 215 6 0 19 -21 31 -47z m-1684 -47
c7 -34 -14 -40 -50 -15 l-33 24 30 6 c40 9 49 6 53 -15z m-2592 -61 c3 -14 4
-38 1 -53 -3 -15 -10 -50 -16 -77 -21 -112 -78 -243 -102 -236 -50 14 -82 4
-115 -34 -33 -39 -64 -120 -64 -166 0 -12 5 -37 12 -55 10 -29 8 -37 -21 -90
-43 -77 -271 -460 -325 -544 -70 -112 -265 -376 -323 -437 l-54 -58 -14 25
c-8 14 -15 43 -15 65 0 22 -8 72 -17 110 -12 55 -16 135 -18 373 -2 250 -5
306 -17 318 -19 19 -40 10 -62 -27 -21 -36 -38 -33 -51 9 -5 18 -13 32 -17 32
-13 0 -9 -54 7 -100 8 -24 15 -48 14 -54 -3 -23 1 -36 11 -36 6 0 10 10 10 23
0 12 11 36 25 52 l24 30 2 -35 c1 -19 3 -136 4 -260 1 -124 7 -250 13 -280 6
-30 16 -102 22 -160 5 -58 13 -125 16 -149 4 -28 3 -42 -4 -40 -5 2 -49 82
-97 178 -86 171 -87 174 -75 211 7 22 10 58 7 82 -6 44 -12 51 -136 162 -54
48 -82 146 -43 146 12 0 25 -14 37 -40 18 -40 110 -136 153 -159 20 -11 22 -9
22 11 1 13 7 34 15 48 8 14 14 36 14 50 0 21 -3 19 -22 -18 -26 -53 -47 -52
-90 0 l-30 38 18 52 c19 57 14 80 -32 150 -17 27 -17 29 0 58 l18 30 -40 0
c-36 0 -40 3 -43 28 -3 23 -7 27 -36 27 -55 0 -69 47 -17 57 26 4 32 36 10 52
-16 12 -16 13 0 29 16 17 44 22 95 18 30 -2 55 41 40 69 -6 11 -6 30 0 50 5
18 7 36 5 41 -8 12 11 20 29 13 9 -4 34 -36 56 -73 43 -72 53 -138 28 -184 -6
-12 -15 -40 -19 -62 l-7 -40 24 30 c33 41 46 96 45 182 -1 87 4 89 101 44 293
-136 337 -150 372 -115 34 33 14 167 -35 235 -11 17 -23 49 -26 72 -4 30 -15
52 -41 79 -49 52 -40 64 55 70 100 7 181 41 211 90 19 30 38 42 128 78 184 73
233 86 321 89 48 1 53 -1 59 -24z m2543 -32 c23 -16 48 -23 80 -23 26 0 51 -4
57 -9 5 -5 81 -41 168 -80 192 -86 206 -94 206 -126 0 -88 -176 -326 -299
-406 l-45 -29 -42 25 c-23 14 -54 25 -68 25 -26 0 -56 40 -56 74 0 23 -77 166
-114 211 -61 74 -86 136 -86 213 0 64 2 70 34 101 35 34 103 64 121 53 5 -3
25 -16 44 -29z m-4044 -61 c16 -11 45 -60 45 -76 0 -7 9 -44 21 -81 l20 -66
147 4 c81 2 191 12 244 21 l98 16 70 -47 c52 -36 69 -54 70 -72 0 -20 -4 -22
-22 -17 -13 4 -45 9 -73 12 l-50 5 60 -34 c157 -91 145 -79 145 -147 0 -33 -2
-60 -4 -60 -4 0 -71 26 -101 40 -11 5 -47 21 -79 35 -33 14 -100 46 -150 70
-100 47 -158 73 -196 85 -14 5 -49 17 -77 28 -41 16 -53 17 -53 7 0 -23 34
-74 52 -79 29 -7 20 -33 -19 -56 -23 -14 -47 -20 -62 -17 -67 14 -66 14 -71
-28 -5 -37 -6 -35 -24 45 -10 47 -22 90 -26 95 -5 6 -11 26 -15 46 -5 27 -3
38 8 42 19 7 28 58 17 96 -5 17 -22 48 -39 68 -39 48 -39 61 2 66 17 2 37 4
42 5 6 1 15 -2 20 -6z m1720 -94 c46 -59 125 -117 187 -137 24 -8 79 -16 123
-17 82 -3 113 -13 131 -42 10 -15 6 -17 -30 -20 -51 -4 -63 -15 -48 -44 23
-46 80 -193 77 -197 -4 -3 -54 26 -124 71 -38 25 -127 76 -194 112 -66 35 -99
80 -117 159 -15 69 -38 120 -50 112 -6 -4 -8 -20 -5 -38 6 -32 6 -32 -56 -49
-35 -9 -65 -15 -67 -13 -2 2 -1 19 3 37 8 37 87 118 114 117 9 0 34 -23 56
-51z m781 1 c37 -18 50 -20 70 -10 34 15 85 13 107 -3 17 -13 17 -16 2 -46
-21 -40 -15 -46 19 -19 l28 22 25 -25 c21 -21 23 -31 18 -62 -6 -30 -17 -43
-62 -74 -30 -20 -87 -61 -126 -89 -40 -29 -80 -53 -90 -53 -21 0 -73 33 -178
112 -66 49 -77 62 -82 95 -4 21 -3 39 2 41 5 2 21 14 37 27 l27 23 94 -85
c101 -91 111 -94 169 -56 35 23 29 36 -7 17 -41 -21 -55 -14 -147 71 l-73 68
23 24 c44 47 78 52 144 22z m-2556 -81 c0 -9 -4 -19 -9 -22 -9 -6 -21 26 -21
58 0 20 0 20 15 0 8 -10 15 -27 15 -36z m3578 15 c13 -12 14 -17 4 -21 -7 -2
-25 -14 -40 -27 -15 -12 -41 -29 -59 -38 -17 -9 -69 -52 -115 -95 l-83 -79
-85 -7 c-47 -4 -104 -14 -128 -22 -54 -18 -119 -50 -127 -64 -23 -38 -33 28
-15 105 8 37 7 42 -20 70 -18 19 -30 42 -30 58 0 33 5 33 64 2 59 -32 150 -55
214 -55 131 0 287 62 356 142 23 27 42 48 44 48 2 0 11 -8 20 -17z m252 4 c16
-12 56 -105 49 -112 -2 -2 -29 -15 -60 -29 -31 -14 -92 -47 -135 -74 -131 -81
-412 -242 -424 -242 -5 0 -10 16 -10 35 0 32 10 46 101 133 114 110 238 203
349 262 79 42 105 47 130 27z m1088 -127 c63 -22 124 -48 136 -58 12 -10 32
-29 46 -41 14 -13 49 -34 78 -47 28 -14 52 -30 52 -37 0 -16 -33 -70 -85 -138
-51 -65 -144 -118 -345 -193 -151 -57 -194 -68 -290 -72 -104 -4 -117 0 -125
44 -8 43 -41 118 -55 127 -15 10 -12 25 8 32 31 12 126 80 158 114 30 32 104
141 104 153 0 3 13 27 29 53 16 27 37 71 46 100 l17 51 55 -24 c31 -14 107
-43 171 -64z m542 -17 c0 -69 -7 -75 -94 -81 -66 -4 -76 -2 -83 13 -11 31 101
114 155 115 20 0 22 -5 22 -47z m-3607 -109 c63 -44 64 -48 73 -188 l7 -100
-60 47 c-77 59 -146 96 -195 103 -35 6 -50 25 -30 38 5 3 30 56 57 119 l49
114 22 -47 c16 -34 38 -59 77 -86z m2067 83 c0 -7 -33 -28 -72 -47 -40 -19
-138 -72 -218 -118 -80 -47 -159 -92 -175 -101 -17 -9 -44 -25 -60 -37 -96
-66 -172 -83 -346 -76 -102 4 -122 2 -132 -11 -11 -15 -116 -55 -238 -91 -31
-9 -69 -13 -86 -10 -20 4 -33 1 -42 -10 -7 -9 -57 -30 -110 -47 -77 -25 -107
-30 -151 -25 -42 4 -59 1 -72 -11 -17 -15 -18 -14 -12 18 9 44 8 44 52 33 29
-7 58 -4 140 18 111 29 132 40 132 69 0 23 8 24 49 3 30 -15 37 -14 129 12
147 41 170 54 186 107 5 17 8 17 43 1 50 -23 272 -41 319 -26 19 5 118 60 222
122 211 125 211 126 267 160 55 34 147 79 163 80 6 0 12 -6 12 -13z m-2487
-57 c14 -16 30 -30 35 -30 6 0 12 -6 15 -14 3 -8 -1 -13 -10 -12 -19 1 -76
-76 -63 -84 5 -3 0 -12 -12 -19 -18 -11 -20 -11 -15 4 4 9 3 14 -2 10 -5 -3
-21 9 -35 26 -30 36 -27 65 12 117 30 40 43 40 75 2z m66 -67 c10 7 8 2 -3
-11 -21 -24 -46 -29 -46 -9 0 20 12 29 24 17 6 -6 15 -5 25 3z m1313 -25 c25
-30 28 -40 28 -109 l0 -76 -57 -17 c-32 -10 -68 -22 -81 -29 -32 -15 -124 -15
-129 1 -12 35 -103 -8 -103 -49 0 -11 -10 -18 -32 -22 -18 -3 -42 -7 -53 -11
-72 -21 -93 -22 -135 -10 -52 15 -77 6 -86 -34 -13 -62 -17 -64 -54 -29 -14
12 -39 32 -56 44 -32 23 -70 103 -61 128 3 7 -3 56 -13 107 -10 51 -15 96 -11
101 4 4 27 -6 52 -22 122 -82 166 -114 190 -142 23 -26 30 -29 47 -20 30 16
34 40 22 120 -12 73 -9 91 13 87 6 -2 30 -6 52 -11 22 -4 45 -12 52 -17 7 -5
25 -9 40 -7 15 1 37 -2 48 -7 42 -19 118 -9 185 24 83 41 107 41 142 0z m3863
2 c10 -11 16 -20 13 -20 -3 0 -13 9 -23 20 -10 11 -16 20 -13 20 3 0 13 -9 23
-20z m-3452 -16 c3 -4 0 -16 -8 -28 -20 -27 -19 -66 1 -95 l16 -23 -118 7
c-119 7 -184 19 -184 35 0 21 52 57 135 92 39 16 145 24 158 12z m776 -10
c-28 -34 -212 -175 -321 -246 -63 -42 -157 -96 -209 -122 -105 -52 -174 -65
-341 -66 -93 0 -97 -1 -116 -27 -20 -27 -21 -27 -41 -9 -16 14 -28 17 -57 12
-49 -10 -241 -102 -252 -122 -8 -14 -14 -15 -46 -3 -32 12 -43 11 -89 -5 -118
-40 -212 -82 -237 -106 -20 -19 -35 -24 -60 -22 -18 2 -53 -4 -77 -13 -36 -14
-46 -15 -59 -4 -14 12 -10 15 32 30 27 10 70 18 97 18 40 1 47 4 47 21 0 16
18 29 72 55 40 19 82 35 94 35 12 0 41 7 65 16 25 8 66 14 94 12 45 -3 51 -1
63 24 13 28 34 38 187 84 75 22 95 25 119 15 24 -8 35 -8 51 3 15 10 67 17
156 21 186 9 232 22 359 98 111 67 435 285 449 301 8 9 18 16 23 16 6 0 5 -7
-3 -16z m-2519 2 c0 -2 -7 -7 -16 -10 -8 -3 -12 -2 -9 4 6 10 25 14 25 6z m43
-3 c-16 -6 -17 -33 -2 -33 5 0 7 5 3 12 -4 7 -3 8 4 4 7 -4 12 -11 12 -17 0
-12 -27 -12 -35 1 -9 15 2 40 17 39 10 0 10 -2 1 -6z m-79 -58 c-4 -18 -2 -25
9 -25 14 0 32 27 28 43 -1 5 3 6 9 2 8 -5 8 -11 1 -19 -13 -16 -4 -27 15 -19
8 3 11 10 7 16 -4 6 -1 7 7 2 8 -5 34 -9 59 -10 110 -5 187 -50 336 -196 139
-137 205 -194 256 -219 22 -12 37 -25 34 -30 -4 -6 -44 -10 -91 -10 -121 0
-182 27 -268 117 -69 74 -138 127 -155 122 -6 -2 16 -26 50 -53 33 -27 67 -63
76 -80 8 -17 28 -44 44 -61 15 -16 38 -52 49 -78 26 -58 98 -163 147 -213 31
-33 33 -36 12 -30 -13 4 -42 11 -64 15 -22 4 -49 12 -60 18 -11 6 -37 13 -57
16 -40 6 -97 42 -168 106 -25 22 -53 41 -62 41 -22 0 -31 -31 -18 -65 6 -15 9
-29 7 -31 -7 -8 -94 45 -151 92 -95 79 -139 156 -167 294 -11 51 -11 53 -8 98
1 17 5 32 10 32 4 0 5 10 3 23 -3 14 1 11 11 -10 18 -40 28 -41 43 -8 7 14 20
25 31 25 27 0 33 14 20 44 -10 22 -6 76 6 76 3 0 3 -11 -1 -25z m2606 -22 c0
-17 -30 -31 -81 -38 l-44 -6 50 46 c45 41 51 44 62 28 7 -9 13 -23 13 -30z
m-2680 -68 c0 -8 -4 -15 -10 -15 -5 0 -10 7 -10 15 0 8 5 15 10 15 6 0 10 -7
10 -15z m2735 5 c3 -5 14 -10 24 -10 24 0 95 -78 122 -132 16 -35 18 -48 10
-70 -12 -31 -27 -34 -55 -13 -11 8 -30 15 -42 15 -24 0 -29 -8 -78 -125 -40
-98 -137 -281 -203 -383 -50 -77 -102 -104 -123 -62 -26 50 -70 162 -80 200
-9 32 -25 57 -56 85 -24 23 -44 47 -44 54 0 7 47 59 104 114 57 56 141 146
186 199 69 83 88 99 123 108 23 6 51 15 62 20 27 12 43 12 50 0z m-261 -67
c-78 -98 -191 -218 -259 -276 -38 -33 -78 -77 -89 -99 -14 -28 -24 -38 -42
-38 -37 0 -182 80 -209 116 l-24 31 70 7 c38 3 87 12 109 20 67 23 245 127
363 212 62 44 114 79 116 77 2 -1 -13 -24 -35 -50z m1996 -180 c-11 -17 -11
-17 -6 0 3 10 7 35 8 55 l1 37 4 -37 c2 -21 -1 -46 -7 -55z m-4550 -15 c0 -26
5 -50 10 -53 8 -5 7 -11 -1 -21 -10 -12 -9 -13 5 -8 12 4 16 0 16 -16 0 -11 5
-18 10 -15 6 3 10 2 10 -3 0 -6 -7 -13 -16 -16 -8 -3 -12 -2 -9 3 3 5 1 12 -4
15 -15 10 -24 -13 -11 -29 14 -16 4 -39 -12 -29 -7 4 -8 2 -4 -4 4 -7 1 -12
-6 -12 -8 0 -7 -4 4 -11 13 -7 22 -5 38 11 27 27 42 25 81 -7 l33 -28 -30 -6
c-49 -11 -116 -10 -109 1 11 18 -24 23 -40 6 -33 -32 -38 -19 -32 82 3 53 11
120 18 147 21 84 49 80 49 -7z m4537 -30 c-3 -8 -6 -5 -6 6 -1 11 2 17 5 13 3
-3 4 -12 1 -19z m83 -98 c0 -21 73 -157 110 -205 21 -27 66 -78 99 -113 156
-164 185 -199 207 -246 28 -60 31 -125 8 -202 -12 -43 -28 -66 -84 -122 -79
-79 -139 -112 -204 -112 -61 0 -106 36 -89 71 10 24 1 69 -15 69 -12 0 -104
-98 -129 -139 -22 -35 -22 -35 -23 -10 0 14 8 33 19 43 24 22 18 106 -13 158
-58 99 -177 203 -312 271 -80 41 -84 51 -27 83 139 78 188 124 274 257 32 50
59 95 59 100 0 5 19 47 41 93 l41 84 19 -35 c11 -19 19 -40 19 -45z m-2753 36
c-5 -14 -48 -17 -64 -4 -9 7 -11 1 -8 -21 2 -17 -1 -31 -6 -31 -6 0 -7 -4 -4
-10 10 -16 22 -12 28 10 3 11 1 20 -4 20 -5 0 -9 5 -9 11 0 8 4 8 14 0 8 -7
12 -22 10 -34 -4 -20 -4 -21 5 -2 4 11 7 23 4 28 -2 4 5 7 17 7 18 0 20 -5 16
-30 -2 -16 0 -32 5 -36 5 -3 9 -11 9 -17 0 -7 -9 1 -19 16 -12 18 -21 25 -26
18 -3 -6 -10 -9 -15 -6 -5 3 -15 -2 -23 -10 -9 -8 -17 -11 -19 -6 -2 4 -14 12
-27 16 -18 5 -22 4 -16 -6 6 -9 2 -11 -13 -7 -14 4 -19 2 -16 -7 8 -19 -12
-27 -25 -11 -8 10 -6 17 9 31 11 10 20 25 20 34 0 9 3 12 8 6 4 -5 17 -16 29
-23 21 -11 23 -10 21 12 -1 14 -6 22 -10 20 -5 -3 -6 -10 -3 -15 4 -5 4 -9 1
-9 -3 0 -10 10 -17 21 -7 13 -7 19 -1 15 6 -3 13 3 17 14 6 18 14 20 61 19 34
-1 53 -6 51 -13z m-207 -27 c0 -5 9 -9 20 -9 16 0 18 -4 11 -22 -4 -12 -14
-24 -22 -26 -11 -3 -12 -2 -1 6 11 7 11 10 -3 15 -9 4 -13 3 -10 -3 9 -14 -29
-12 -44 3 -8 6 -11 7 -8 1 4 -6 -2 -19 -13 -29 -11 -10 -17 -21 -15 -26 3 -4
1 -11 -5 -14 -6 -4 -9 -1 -8 6 4 16 -22 19 -40 5 -9 -7 -12 -5 -10 5 2 8 -7
15 -22 17 l-25 4 22 -24 22 -23 -23 0 c-16 0 -23 6 -24 25 -1 20 7 30 38 46
34 19 42 20 57 8 26 -20 42 -17 18 4 -11 9 -18 16 -16 14 2 -1 12 5 22 14 10
9 25 14 34 11 8 -4 15 -2 15 3 0 5 7 7 15 4 8 -4 15 -10 15 -15z m-5 -70 c3
-3 -4 -14 -15 -24 -19 -17 -20 -17 -29 6 -5 13 -10 18 -10 10 -1 -8 -4 -12 -7
-8 -11 11 5 24 30 23 14 -1 28 -4 31 -7z m385 -46 c83 -45 90 -47 122 -35 48
17 98 15 132 -6 21 -13 34 -35 51 -87 56 -167 71 -198 106 -217 19 -10 51 -18
71 -18 21 0 38 -4 38 -9 0 -4 37 -48 83 -97 45 -49 92 -101 104 -115 l23 -25
-33 -65 c-18 -36 -43 -78 -56 -94 -19 -25 -22 -37 -17 -76 l6 -45 -107 -59
c-125 -67 -277 -162 -347 -217 -27 -21 -51 -38 -55 -38 -19 0 -165 149 -210
214 l-52 75 35 23 c18 12 38 30 44 39 7 10 8 93 3 240 -4 123 -4 243 1 267 7
39 -20 308 -38 370 -3 12 -3 22 1 22 4 0 47 -21 95 -47z m-359 10 c13 -16 12
-17 -3 -4 -10 7 -18 15 -18 17 0 8 8 3 21 -13z m120 -3 c16 0 29 5 29 11 0 6
8 3 17 -6 21 -22 30 -115 13 -154 -7 -18 -22 -32 -37 -36 -33 -8 -46 12 -27
39 14 20 20 76 7 63 -8 -9 -32 26 -43 63 -7 26 0 55 8 31 2 -6 17 -11 33 -11z
m-376 -19 c-3 -6 -11 -11 -16 -11 -5 0 -4 6 3 14 14 16 24 13 13 -3z m-135 -1
c0 -5 -9 -10 -21 -10 -11 0 -18 -4 -14 -9 10 -18 -13 -21 -41 -6 -19 9 -23 15
-12 15 9 0 20 -4 23 -10 3 -5 11 -10 16 -10 6 0 8 4 4 9 -3 6 3 14 12 20 23
13 33 14 33 1z m-1071 -29 c20 -15 50 -36 68 -45 35 -18 128 -22 138 -6 4 6
25 -3 52 -22 25 -18 64 -40 87 -48 l41 -16 0 -109 c0 -107 -15 -257 -35 -360
-5 -27 -15 -76 -21 -107 -12 -65 -29 -77 -29 -22 0 47 -52 226 -88 307 -53
114 -159 267 -186 267 -48 0 -236 -109 -341 -197 -40 -34 -42 -16 -7 54 16 32
44 99 62 148 36 100 60 128 123 146 23 7 51 19 62 26 27 18 32 17 74 -16z
m1269 4 c-3 -3 -9 2 -12 12 -6 14 -5 15 5 6 7 -7 10 -15 7 -18z m-338 -15 c0
-5 -8 -10 -17 -10 -15 0 -16 2 -3 10 19 12 20 12 20 0z m544 -45 c29 -16 50
-39 74 -84 7 -13 12 -61 12 -115 0 -52 6 -101 13 -115 21 -43 96 -51 133 -14
17 17 17 17 11 -7 -3 -14 -9 -58 -13 -97 -6 -67 -9 -73 -29 -73 -27 0 -96 49
-122 87 -46 68 -54 101 -52 214 2 120 -3 132 -59 156 -31 13 -34 12 -53 -9
-18 -22 -20 -22 -33 -5 -14 18 -16 17 -37 -12 -17 -24 -26 -28 -36 -20 -18 16
-16 53 5 72 42 38 134 49 186 22z m-1410 -236 c25 -38 46 -71 46 -75 0 -3 15
-31 34 -63 75 -129 120 -354 110 -551 -5 -90 -11 -122 -27 -149 -18 -29 -70
-71 -89 -71 -11 0 -38 56 -38 78 0 11 -7 33 -15 48 -8 16 -15 36 -15 45 0 8
-4 19 -8 25 -5 5 -28 61 -51 124 -24 63 -50 133 -58 155 -44 119 -124 201
-171 176 -32 -17 -137 -106 -228 -194 -76 -72 -83 -77 -108 -67 -31 11 -31 11
12 125 37 99 118 185 321 337 123 93 204 140 226 132 7 -3 34 -37 59 -75z
m1216 22 c0 -30 174 -199 233 -226 12 -6 45 -23 72 -40 28 -16 64 -37 80 -45
28 -14 30 -20 37 -90 10 -98 0 -111 -63 -80 -106 54 -209 161 -358 374 -46 66
-55 116 -21 116 11 0 20 -4 20 -9z m1507 -45 c70 -19 84 -28 53 -37 -14 -3
-32 -3 -40 2 -22 11 -303 11 -332 0 -27 -10 -54 1 -44 18 4 6 22 11 39 11 18
0 39 5 47 10 22 15 218 12 277 -4z m123 -87 c52 -22 88 -54 76 -67 -4 -4 -111
-9 -238 -10 l-230 -4 -29 34 c-15 18 -28 36 -29 39 -1 16 80 25 233 27 151 2
174 0 217 -19z m158 -48 c26 -21 58 -42 72 -46 14 -4 30 -11 35 -15 6 -4 26
-10 45 -14 19 -3 46 -8 60 -11 152 -33 388 -48 480 -30 245 46 290 51 318 36
35 -18 26 -28 -30 -34 -29 -4 -64 -9 -78 -11 -89 -19 -131 -27 -180 -36 -65
-12 -369 -11 -420 2 -19 5 -64 13 -100 19 -36 6 -83 21 -105 33 -51 28 -175
125 -175 137 0 20 34 7 78 -30z m-1916 -56 c76 -37 114 -50 210 -67 51 -9 61
-16 103 -64 25 -30 51 -54 57 -54 6 0 21 -11 34 -25 13 -14 28 -25 34 -25 5 0
10 -21 10 -48 0 -57 -10 -69 -120 -136 -80 -50 -103 -57 -93 -28 5 14 3 15 -8
5 -7 -7 -29 -13 -49 -13 -51 0 -84 36 -78 85 5 43 -14 45 -45 4 -17 -24 -18
-31 -7 -63 6 -20 24 -44 38 -53 15 -9 29 -19 32 -21 9 -7 -26 -22 -51 -22 -35
0 -87 53 -95 97 -17 88 30 150 130 172 l58 13 -51 24 c-65 29 -134 87 -167
139 -15 22 -38 52 -51 67 -54 57 4 64 109 13z m3038 -124 c40 -46 51 -80 28
-82 -7 0 -47 -2 -88 -4 -41 -1 -95 -7 -120 -13 -25 -6 -105 -16 -178 -23 -106
-10 -150 -10 -214 0 -85 13 -213 44 -263 63 -42 16 -114 61 -119 74 -5 14 32
7 53 -10 12 -9 13 -8 6 3 -6 11 -5 12 6 5 8 -4 23 -10 34 -11 65 -9 82 -13
105 -20 29 -9 285 -10 315 -1 11 3 48 9 83 13 34 4 65 11 68 16 3 5 17 9 32 9
15 0 61 9 102 19 41 10 83 16 93 13 10 -2 35 -25 57 -51z m-4320 -37 c31 -61
57 -124 117 -292 8 -24 12 -46 9 -49 -3 -4 -6 0 -6 7 0 26 -164 215 -200 230
-21 9 -44 5 -123 -18 -53 -16 -97 -26 -97 -23 0 20 237 223 254 218 6 -2 27
-35 46 -73z m1078 -26 c7 -7 12 -20 12 -30 0 -19 20 -24 36 -9 12 12 105 31
129 26 11 -2 31 -4 45 -5 l25 -1 -28 -24 c-31 -28 -45 -30 -80 -14 -53 24
-130 -51 -125 -121 3 -32 6 -35 36 -38 39 -4 51 -25 28 -51 -22 -24 -21 -29
16 -62 37 -31 33 -42 -13 -41 -67 2 -133 105 -128 200 2 33 -2 67 -10 80 -14
27 -8 63 15 86 19 19 26 20 42 4z m1908 -85 c54 -18 73 -36 74 -70 0 -24 -21
-38 -190 -126 -265 -138 -462 -277 -475 -338 -12 -54 56 -130 153 -170 17 -8
32 -18 32 -23 0 -18 -44 -56 -65 -56 -11 0 -95 36 -185 81 -91 44 -189 92
-217 105 -29 14 -56 30 -59 36 -12 19 20 92 56 128 79 79 421 286 605 366 219
95 202 91 271 67z m-3020 -105 c39 -46 93 -117 121 -159 28 -41 62 -83 76 -92
30 -20 40 -79 25 -153 -10 -50 -16 -57 -92 -120 -44 -37 -114 -102 -154 -146
-41 -43 -77 -78 -81 -78 -7 0 -30 251 -38 417 -6 118 -13 121 -133 74 -52 -21
-153 -67 -225 -102 -163 -80 -156 -78 -119 -38 38 43 68 90 129 204 94 177
117 198 272 244 144 43 138 44 219 -51z m-1044 5 c23 -32 66 -83 96 -115 55
-57 60 -78 17 -78 -18 0 -37 16 -70 58 -79 101 -117 161 -111 177 10 26 24 17
68 -42z m-92 -37 c53 -102 216 -250 353 -321 60 -31 68 -44 54 -87 -10 -31
-16 -37 -48 -42 -48 -8 -89 7 -169 60 -86 57 -157 126 -206 199 -46 68 -92
161 -100 204 -5 25 -3 30 17 34 57 11 72 4 99 -47z m710 30 c0 -8 -17 -43 -38
-77 -32 -53 -47 -68 -93 -91 -89 -44 -150 -59 -225 -56 l-69 3 93 50 c151 81
157 86 156 128 -1 40 2 43 76 50 80 8 100 7 100 -7z m936 -46 c10 0 25 -6 33
-14 9 -8 42 -30 74 -49 l58 -35 -68 -48 c-37 -26 -88 -62 -113 -80 -25 -17
-55 -35 -68 -39 -23 -7 -22 -5 7 36 31 41 31 43 31 168 1 117 2 124 15 94 8
-19 21 -33 31 -33z m1281 -66 c15 -14 23 -23 17 -20 -19 9 -141 -60 -152 -87
-2 -4 -8 -5 -13 -1 -5 3 -9 2 -8 -3 3 -18 -1 -34 -8 -30 -12 7 -30 -17 -27
-36 1 -9 -1 -17 -5 -17 -9 0 -9 -3 -14 -80 -3 -55 16 -127 37 -142 7 -5 7 -8
-2 -8 -18 0 -96 80 -116 121 -21 41 -31 115 -22 161 6 32 14 38 137 101 72 37
135 67 140 67 4 0 21 -12 36 -26z m1760 -30 c91 -47 145 -90 168 -135 13 -24
12 -30 -14 -71 -31 -49 -143 -153 -193 -181 -72 -38 -128 -14 -172 76 -22 45
-26 67 -26 139 0 81 20 178 42 206 6 6 32 12 59 12 38 0 67 -10 136 -46z
m-227 32 c0 -2 -7 -23 -15 -46 -8 -24 -19 -80 -24 -124 -11 -92 3 -159 44
-220 28 -41 26 -42 -61 -19 l-65 17 -39 83 c-22 45 -40 90 -40 99 0 18 79 141
107 166 30 27 93 57 93 44z m-1486 -45 c3 -5 -6 -17 -20 -26 l-27 -17 19 26
c22 29 21 29 28 17z m1239 -20 c29 -11 35 -32 14 -49 -38 -32 -211 -79 -223
-61 -3 5 22 36 55 70 64 66 77 70 154 40z m-193 4 c0 -3 -20 -27 -44 -53 -24
-26 -54 -71 -66 -100 -23 -53 -23 -54 -5 -110 10 -31 28 -81 41 -109 l23 -53
-21 -11 c-27 -15 -104 -6 -126 14 -10 9 -49 32 -87 51 -65 33 -115 82 -115
113 0 19 191 153 330 231 55 31 70 37 70 27z m-1846 -73 c6 -10 -32 -40 -79
-64 -16 -9 -50 -15 -75 -15 -44 0 -45 0 -21 16 23 15 149 70 163 71 4 0 9 -4
12 -8z m186 -11 c0 -17 -87 -86 -146 -115 -55 -28 -110 -45 -213 -67 -24 -5
-46 -7 -49 -4 -3 2 8 21 23 40 24 32 46 46 120 76 41 16 121 51 150 64 34 16
115 20 115 6z m1884 -174 c38 -64 31 -92 -25 -101 -22 -4 -50 -13 -63 -21 -12
-8 -44 -16 -71 -17 -42 -1 -51 2 -75 29 -38 42 -74 152 -61 186 13 35 28 42
91 43 62 2 80 6 130 26 l35 15 6 -56 c3 -35 16 -74 33 -104z m-3803 116 c52
-28 62 -48 30 -58 -20 -6 -131 57 -131 75 0 19 52 10 101 -17z m493 -70 c3
-54 11 -151 18 -216 11 -114 9 -148 -19 -290 -5 -27 -6 -26 -35 30 -69 131
-151 230 -237 285 -56 35 -75 35 -181 -1 -47 -16 -86 -28 -88 -26 -2 2 6 22
18 45 19 38 32 46 163 109 78 38 176 84 217 103 41 19 86 39 100 45 14 7 28
12 31 12 4 1 9 -43 13 -96z m516 3 c0 -3 -4 -8 -10 -11 -5 -3 -10 -1 -10 4 0
6 5 11 10 11 6 0 10 -2 10 -4z m440 -41 c0 -12 -54 -38 -107 -51 -68 -16 -404
-56 -412 -49 -2 3 2 13 11 22 11 10 46 19 100 24 86 9 250 32 328 48 55 10 80
13 80 6z m-60 -99 c0 -26 -74 -76 -140 -96 -105 -31 -461 -53 -475 -29 -4 5
10 25 32 44 36 31 44 34 133 40 119 8 156 12 300 35 147 23 150 23 150 6z
m-1183 -95 c66 -53 159 -189 208 -307 l13 -32 -68 -36 c-93 -49 -183 -76 -257
-76 -70 0 -107 11 -142 43 -35 33 -96 126 -116 179 -24 65 -17 84 70 194 13
17 37 29 65 35 25 5 68 16 95 23 72 21 77 20 132 -23z"/>
<path d="M8952 7345 c0 -16 2 -22 5 -12 2 9 2 23 0 30 -3 6 -5 -1 -5 -18z"/>
<path d="M9126 6505 c-12 -189 -35 -407 -60 -575 -68 -443 -137 -759 -218
-995 -75 -222 -244 -593 -385 -849 -47 -85 -51 -98 -28 -90 8 4 15 12 15 20 0
8 5 14 10 14 6 0 10 4 10 9 0 5 25 53 56 107 48 84 159 308 217 434 97 215
175 439 223 640 13 58 29 123 34 145 20 83 69 357 100 569 27 179 56 619 43
649 -8 17 -12 1 -17 -78z"/>
<path d="M4966 5673 c33 -142 177 -215 359 -184 118 21 275 118 275 170 0 29
-9 27 -71 -20 -70 -52 -120 -77 -194 -94 -77 -19 -109 -19 -175 1 -43 13 -68
30 -123 85 -38 38 -71 69 -73 69 -3 0 -1 -12 2 -27z"/>
<path d="M4205 6913 c-41 -10 -125 -84 -155 -136 -53 -92 -38 -204 33 -247 65
-40 228 -18 291 39 62 57 84 167 47 239 -23 45 -67 91 -99 103 -24 9 -83 10
-117 2z"/>
<path d="M6347 6727 c-82 -81 -101 -220 -40 -295 45 -56 102 -84 173 -84 76 0
131 29 182 97 45 58 63 112 54 152 -9 35 -100 124 -155 152 -28 15 -59 21
-106 21 -64 0 -67 -1 -108 -43z"/>
<path d="M4994 3939 c-8 -14 11 -33 25 -25 6 4 11 11 11 16 0 13 -29 20 -36 9z"/>
<path d="M2892 2954 c1 -9 9 -19 16 -22 9 -3 13 2 10 14 -1 9 -9 19 -16 22 -9
3 -13 -2 -10 -14z"/>
<path d="M2923 2855 c-3 -9 -3 -18 0 -21 9 -9 27 6 27 22 0 19 -19 18 -27 -1z"/>
<path d="M2742 3258 c2 -15 11 -24 26 -26 20 -3 23 0 20 20 -2 15 -11 24 -26
26 -20 3 -23 0 -20 -20z"/>
<path d="M2896 3181 c-4 -7 -5 -15 -2 -18 9 -9 19 4 14 18 -4 11 -6 11 -12 0z"/>
<path d="M5521 2476 c-9 -11 -7 -15 8 -19 14 -3 17 0 14 14 -6 23 -7 23 -22 5z"/>
<path d="M5556 2467 c3 -10 9 -15 12 -12 3 3 0 11 -7 18 -10 9 -11 8 -5 -6z"/>
<path d="M5620 2442 c0 -12 3 -12 15 -2 8 7 15 13 15 15 0 1 -7 2 -15 2 -8 0
-15 -7 -15 -15z"/>
<path d="M5586 1594 c17 -8 37 -26 44 -39 16 -30 16 -81 -1 -101 -6 -8 -10
-17 -7 -19 9 -9 86 81 96 112 12 37 21 31 -86 53 -72 14 -83 12 -46 -6z"/>
<path d="M1184 8919 c-45 -50 -5 -176 75 -238 l35 -26 -18 28 c-10 15 -21 27
-25 27 -8 0 -49 96 -52 120 -10 87 27 76 90 -26 35 -57 58 -153 40 -165 -8 -5
-8 -12 1 -29 6 -12 9 -24 6 -27 -7 -8 -125 82 -149 114 -20 25 -47 31 -47 10
0 -25 51 -71 143 -130 44 -28 102 -90 130 -138 31 -52 77 -226 77 -289 0 -55
17 -120 32 -120 6 0 8 13 3 38 -4 20 -11 64 -15 97 -20 145 -81 315 -129 359
-18 16 -20 27 -15 65 13 103 -42 263 -108 312 -51 39 -54 40 -74 18z"/>
<path d="M1216 8535 c9 -14 20 -25 25 -25 5 0 2 11 -7 25 -9 14 -20 25 -25 25
-5 0 -2 -11 7 -25z"/>
<path d="M1531 8507 c-1 -15 5 -60 13 -100 8 -40 17 -92 20 -117 7 -49 39
-192 63 -280 51 -185 105 -352 120 -375 13 -19 13 -19 13 0 0 11 -20 90 -44
175 -70 245 -93 336 -121 475 -25 123 -31 147 -54 220 l-9 30 -1 -28z"/>
<path d="M1531 7988 c-1 -15 4 -30 9 -33 6 -3 10 -19 10 -34 0 -16 6 -34 14
-40 27 -23 26 7 -3 71 -24 50 -30 58 -30 36z"/>
<path d="M1610 7798 c0 -9 5 -20 10 -23 13 -8 13 5 0 25 -8 13 -10 13 -10 -2z"/>
<path d="M1670 7673 c0 -12 5 -25 11 -28 17 -11 18 -2 4 25 -14 24 -14 24 -15
3z"/>
<path d="M1719 7602 c16 -31 38 -45 47 -31 4 7 -2 20 -16 31 -29 23 -44 23
-31 0z"/>
<path d="M1670 7414 c0 -3 9 -18 19 -33 11 -15 23 -39 26 -54 4 -15 11 -24 16
-21 5 3 9 -3 9 -12 0 -10 22 -52 50 -93 27 -42 63 -107 80 -145 l31 -69 19 31
c15 24 17 38 10 59 -4 15 -16 55 -25 88 -9 33 -22 72 -27 87 -11 29 -73 85
-123 111 -17 8 -39 24 -49 36 -18 20 -36 28 -36 15z"/>
<path d="M1922 6301 c-11 -7 -10 -10 3 -15 23 -9 25 -8 25 9 0 17 -9 19 -28 6z"/>
<path d="M2060 6118 c0 -8 14 -35 32 -59 30 -42 31 -44 19 -94 -7 -27 -13 -59
-15 -71 -1 -11 -6 -25 -10 -32 -4 -7 -4 -12 0 -12 3 0 -5 -15 -20 -34 -14 -19
-26 -38 -26 -42 0 -4 6 0 13 9 10 15 12 13 13 -15 1 -18 11 -70 23 -116 12
-46 19 -91 16 -101 -7 -23 17 -53 44 -58 25 -4 44 -20 54 -45 3 -10 15 -18 26
-18 26 0 143 -130 181 -202 30 -55 50 -73 50 -45 0 32 -43 161 -62 187 l-21
30 26 49 c34 62 34 75 0 68 -49 -9 -111 23 -156 82 -23 31 -55 67 -72 82 -27
25 -30 33 -29 86 0 32 3 83 6 114 10 93 -23 194 -77 239 -12 10 -15 10 -15 -2z"/>
<path d="M2280 5995 c0 -15 -6 -38 -14 -54 -14 -27 -13 -28 46 -82 58 -52 98
-77 98 -61 0 6 -33 35 -63 53 -5 4 -7 14 -4 24 6 14 11 13 43 -11 37 -29 63
-76 45 -82 -6 -2 -6 -13 1 -33 14 -40 30 -37 23 5 -4 18 -2 36 3 40 21 13 -20
96 -66 134 -24 20 -58 49 -74 65 -36 33 -38 33 -38 2z"/>
<path d="M2030 5753 c0 -15 19 -37 26 -31 3 4 -1 14 -10 23 -9 9 -16 13 -16 8z"/>
<path d="M2490 5603 c0 -16 9 -40 19 -52 14 -16 18 -32 15 -59 l-5 -37 15 32
c15 32 45 49 84 44 12 -1 22 2 22 8 0 17 -52 51 -78 51 -14 0 -36 10 -49 22
l-23 21 0 -30z"/>
<path d="M2010 5556 c0 -2 8 -10 18 -17 15 -13 16 -12 3 4 -13 16 -21 21 -21
13z"/>
<path d="M2520 5413 c0 -21 3 -24 9 -14 5 8 7 20 4 28 -8 21 -13 15 -13 -14z"/>
<path d="M2481 5231 c-10 -22 -10 -34 -1 -50 8 -17 7 -36 -6 -84 -9 -34 -17
-80 -19 -102 -1 -22 -5 -47 -9 -57 -6 -13 -2 -16 25 -15 26 2 36 -3 46 -24 14
-29 53 -67 53 -52 0 18 -50 119 -50 103 -1 -27 -17 10 -24 55 -5 30 -2 52 13
85 26 56 26 77 2 129 l-18 42 -12 -30z"/>
<path d="M2204 5186 c-7 -31 1 -46 27 -46 22 0 27 38 7 58 -18 18 -27 15 -34
-12z"/>
<path d="M2564 5149 c-9 -15 12 -33 30 -26 9 4 16 13 16 22 0 17 -35 21 -46 4z"/>
<path d="M2316 5135 c-3 -9 1 -18 10 -22 19 -7 28 2 21 22 -8 19 -23 19 -31 0z"/>
<path d="M2207 5083 c-14 -13 -6 -33 13 -33 11 0 20 4 20 9 0 13 -26 32 -33
24z"/>
<path d="M2530 5045 c-10 -12 -10 -19 -2 -27 16 -16 42 -2 42 22 0 24 -22 26
-40 5z"/>
<path d="M2305 5040 c-8 -14 3 -30 21 -30 8 0 14 9 14 20 0 21 -24 28 -35 10z"/>
<path d="M2121 4994 c0 -11 3 -14 6 -6 3 7 2 16 -1 19 -3 4 -6 -2 -5 -13z"/>
<path d="M2155 4743 c17 -16 38 -39 48 -53 14 -20 14 -18 -2 13 -19 38 -47 66
-66 67 -5 0 4 -12 20 -27z"/>
</g>
</svg>
